Walking01_kinetics.mot
version=1
nRows=24
nColumns=19
inDegrees=yes
endheader
time	1_ground_force_vx	1_ground_force_vy	1_ground_force_vz	1_ground_force_px	1_ground_force_py	1_ground_force_pz	2_ground_force_vx	2_ground_force_vy	2_ground_force_vz	2_ground_force_px	2_ground_force_py	2_ground_force_pz	1_ground_torque_x	1_ground_torque_y	1_ground_torque_z	2_ground_torque_x	2_ground_torque_y	2_ground_torque_z
  0.76500000	  0.00000000	  0.00000000	  0.00000000	 -0.30048871	 -0.00042294	  0.20058549	-24.51609041	495.74779668	 30.07640953	  0.30614010	  0.00247675	 -0.03234650	  0.00000000	  0.00000000	  0.00000000	  0.00148920	 -1.14272890	  0.00003776
  0.76600000	  0.00000000	  0.00000000	  0.00000000	 -0.30048871	 -0.00042294	  0.20058549	-24.28500217	494.38340190	 29.91850775	  0.30695856	  0.00247781	 -0.03231711	  0.00000000	  0.00000000	  0.00000000	  0.00150294	 -1.15327582	  0.00003810
  0.76700000	  0.00000000	  0.00000000	  0.00000000	 -0.30048871	 -0.00042294	  0.20058549	-24.05750576	493.01985812	 29.76348443	  0.30776684	  0.00247887	 -0.03227186	  0.00000000	  0.00000000	  0.00000000	  0.00151753	 -1.16447126	  0.00003847
  0.76800000	  0.00000000	  0.00000000	  0.00000000	 -0.30048871	 -0.00042294	  0.20058549	-23.83428984	491.66149056	 29.61099953	  0.30856052	  0.00247990	 -0.03221110	  0.00000000	  0.00000000	  0.00000000	  0.00153203	 -1.17559216	  0.00003884
  0.76900000	  0.00000000	  0.00000000	  0.00000000	 -0.30048871	 -0.00042294	  0.20058549	-23.61458603	490.31744068	 29.46084238	  0.30933618	  0.00248092	 -0.03213641	  0.00000000	  0.00000000	  0.00000000	  0.00154551	 -1.18593503	  0.00003918
  0.77000000	  0.00000000	  0.00000000	  0.00000000	 -0.30048871	 -0.00042294	  0.20058549	-23.39626786	488.99872116	 29.31295413	  0.31009144	  0.00248190	 -0.03205125	  0.00000000	  0.00000000	  0.00000000	  0.00155733	 -1.19500713	  0.00003948
  0.77100000	  0.00000000	  0.00000000	  0.00000000	 -0.30048871	 -0.00042294	  0.20058549	-23.17676147	487.71613653	 29.16749777	  0.31082551	  0.00248286	 -0.03196099	  0.00000000	  0.00000000	  0.00000000	  0.00156728	 -1.20264372	  0.00003973
  0.77200000	  0.00000000	  0.00000000	  0.00000000	 -0.30048871	 -0.00042294	  0.20058549	-22.95416497	486.47862611	 29.02492065	  0.31153953	  0.00248380	 -0.03187235	  0.00000000	  0.00000000	  0.00000000	  0.00157557	 -1.20900695	  0.00003995
  0.77300000	  0.00000000	  0.00000000	  0.00000000	 -0.30048871	 -0.00042294	  0.20058549	-22.72804065	485.29177261	 28.88596250	  0.31223641	  0.00248471	 -0.03179221	  0.00000000	  0.00000000	  0.00000000	  0.00158267	 -1.21445483	  0.00004013
  0.77400000	  0.00000000	  0.00000000	  0.00000000	 -0.30048871	 -0.00042294	  0.20058549	-22.49958941	484.15676216	 28.75159791	  0.31292013	  0.00248560	 -0.03172610	  0.00000000	  0.00000000	  0.00000000	  0.00158911	 -1.21939533	  0.00004029
  0.77500000	  0.00000000	  0.00000000	  0.00000000	 -0.30048871	 -0.00042294	  0.20058549	-22.27097344	483.07029070	 28.62291029	  0.31359457	  0.00248648	 -0.03167706	  0.00000000	  0.00000000	  0.00000000	  0.00159547	 -1.22427387	  0.00004045
  0.77600000	  0.00000000	  0.00000000	  0.00000000	 -0.30048871	 -0.00042294	  0.20058549	-22.04395893	482.02573577	 28.50087736	  0.31426225	  0.00248735	 -0.03164486	  0.00000000	  0.00000000	  0.00000000	  0.00160251	 -1.22967431	  0.00004063
  0.77700000	  0.00000000	  0.00000000	  0.00000000	 -0.30048871	 -0.00042294	  0.20058549	-21.81863836	481.01606387	 28.38601806	  0.31492353	  0.00248822	 -0.03162633	  0.00000000	  0.00000000	  0.00000000	  0.00161118	 -1.23632790	  0.00004085
  0.77800000	  0.00000000	  0.00000000	  0.00000000	 -0.30048871	 -0.00042294	  0.20058549	-21.59284146	480.03835210	 28.27790366	  0.31557666	  0.00248907	 -0.03161674	  0.00000000	  0.00000000	  0.00000000	  0.00162236	 -1.24490765	  0.00004113
  0.77900000	  0.00000000	  0.00000000	  0.00000000	 -0.30048871	 -0.00042294	  0.20058549	-21.36227182	479.09761851	 28.17471376	  0.31621861	  0.00248990	 -0.03161151	  0.00000000	  0.00000000	  0.00000000	  0.00163653	 -1.25577896	  0.00004149
  0.78000000	  0.00000000	  0.00000000	  0.00000000	 -0.30048871	 -0.00042294	  0.20058549	-21.12126642	478.20702135	 28.07307580	  0.31684595	  0.00249072	 -0.03160728	  0.00000000	  0.00000000	  0.00000000	  0.00165371	 -1.26896090	  0.00004193
  0.78100000	  0.00000000	  0.00000000	  0.00000000	 -0.30048871	 -0.00042294	  0.20058549	-20.86408380	477.38412650	 27.96833585	  0.31745562	  0.00249152	 -0.03160195	  0.00000000	  0.00000000	  0.00000000	  0.00167371	 -1.28431343	  0.00004243
  0.78200000	  0.00000000	  0.00000000	  0.00000000	 -0.30048871	 -0.00042294	  0.20058549	-20.58651051	476.64531766	 27.85545208	  0.31804542	  0.00249229	 -0.03159437	  0.00000000	  0.00000000	  0.00000000	  0.00169643	 -1.30174246	  0.00004301
  0.78300000	  0.00000000	  0.00000000	  0.00000000	 -0.30048871	 -0.00042294	  0.20058549	-20.28743966	476.00036268	 27.73049546	  0.31861416	  0.00249303	 -0.03158394	  0.00000000	  0.00000000	  0.00000000	  0.00172187	 -1.32126616	  0.00004365
  0.78400000	  0.00000000	  0.00000000	  0.00000000	 -0.30048871	 -0.00042294	  0.20058549	-19.96965979	475.44894758	 27.59198698	  0.31916147	  0.00249374	 -0.03157043	  0.00000000	  0.00000000	  0.00000000	  0.00175014	 -1.34296123	  0.00004437
  0.78500000	  0.00000000	  0.00000000	  0.00000000	 -0.30048871	 -0.00042294	  0.20058549	-19.63893909	474.98098993	 27.44107975	  0.31968774	  0.00249443	 -0.03155383	  0.00000000	  0.00000000	  0.00000000	  0.00178128	 -1.36685722	  0.00004516
  0.78600000	  0.00000000	  0.00000000	  0.00000000	 -0.30048871	 -0.00042294	  0.20058549	-19.30167275	474.58059134	 27.28051712	  0.32019422	  0.00249509	 -0.03153445	  0.00000000	  0.00000000	  0.00000000	  0.00181511	 -1.39281158	  0.00004602
  0.78700000	  0.00000000	  0.00000000	  0.00000000	 -0.30048871	 -0.00042294	  0.20058549	-18.96283251	474.23139686	 27.11313933	  0.32068343	  0.00249573	 -0.03151286	  0.00000000	  0.00000000	  0.00000000	  0.00185105	 -1.42039452	  0.00004693
  0.78800000	  0.00000000	  0.00000000	  0.00000000	 -0.30048871	 -0.00042294	  0.20058549	-18.62545554	473.92135922	 26.94063537	  0.32115989	  0.00249635	 -0.03148974	  0.00000000	  0.00000000	  0.00000000	  0.00188811	 -1.44882731	  0.00004787
